<svg width="233" height="217" viewBox="0 0 233 217" fill="none" xmlns="http://www.w3.org/2000/svg">
<path d="M5.94602 117.831V110.741C12.3113 110.741 16.7518 109.407 19.2674 106.739C21.8211 104.071 23.098 99.6117 23.098 93.3608V75.0653C23.098 69.8054 23.5935 65.2506 24.5845 61.4009C25.6136 57.5513 27.2717 54.3686 29.5586 51.853C31.8455 49.3374 34.8948 47.4697 38.7063 46.25C42.5179 45.0303 47.2251 44.4204 52.8281 44.4204V55.6264C48.4067 55.6264 44.9192 56.3125 42.3654 57.6847C39.8498 59.0568 38.0584 61.1913 36.9911 64.0881C35.962 66.9467 35.4474 70.6058 35.4474 75.0653V97.9347C35.4474 100.908 35.0472 103.614 34.2468 106.053C33.4845 108.493 32.0552 110.589 29.9588 112.342C27.8625 114.096 24.8704 115.449 20.9826 116.402C17.1329 117.355 12.1207 117.831 5.94602 117.831ZM52.8281 190.784C47.2251 190.784 42.5179 190.174 38.7063 188.955C34.8948 187.735 31.8455 185.867 29.5586 183.352C27.2717 180.836 25.6136 177.653 24.5845 173.804C23.5935 169.954 23.098 165.399 23.098 160.139V141.844C23.098 135.593 21.8211 131.133 19.2674 128.465C16.7518 125.797 12.3113 124.463 5.94602 124.463V117.374C12.1207 117.374 17.1329 117.85 20.9826 118.803C24.8704 119.756 27.8625 121.109 29.9588 122.862C32.0552 124.616 33.4845 126.712 34.2468 129.151C35.0472 131.591 35.4474 134.297 35.4474 137.27V160.139C35.4474 164.599 35.962 168.258 36.9911 171.116C38.0584 173.975 39.8498 176.091 42.3654 177.463C44.9192 178.873 48.4067 179.578 52.8281 179.578V190.784ZM5.94602 124.463V110.741H19.4389V124.463H5.94602ZM225.414 117.374V124.463C219.049 124.463 214.589 125.797 212.036 128.465C209.52 131.133 208.262 135.593 208.262 141.844V160.139C208.262 165.399 207.748 169.954 206.719 173.804C205.728 177.653 204.089 180.836 201.802 183.352C199.515 185.867 196.466 187.735 192.654 188.955C188.842 190.174 184.135 190.784 178.532 190.784V179.578C182.954 179.578 186.422 178.873 188.938 177.463C191.491 176.091 193.283 173.975 194.312 171.116C195.379 168.258 195.913 164.599 195.913 160.139V137.27C195.913 134.297 196.294 131.591 197.056 129.151C197.857 126.712 199.305 124.616 201.402 122.862C203.498 121.109 206.471 119.756 210.321 118.803C214.208 117.85 219.24 117.374 225.414 117.374ZM178.532 44.4204C184.135 44.4204 188.842 45.0303 192.654 46.25C196.466 47.4697 199.515 49.3374 201.802 51.853C204.089 54.3686 205.728 57.5513 206.719 61.4009C207.748 65.2506 208.262 69.8054 208.262 75.0653V93.3608C208.262 99.6117 209.52 104.071 212.036 106.739C214.589 109.407 219.049 110.741 225.414 110.741V117.831C219.24 117.831 214.208 117.355 210.321 116.402C206.471 115.449 203.498 114.096 201.402 112.342C199.305 110.589 197.857 108.493 197.056 106.053C196.294 103.614 195.913 100.908 195.913 97.9347V75.0653C195.913 70.6058 195.379 66.9467 194.312 64.0881C193.283 61.1913 191.491 59.0568 188.938 57.6847C186.422 56.3125 182.954 55.6264 178.532 55.6264V44.4204ZM225.414 110.741V124.463H211.921V110.741H225.414Z" fill="#052D64"/>
<path d="M119 31.9405L117.974 30.9446C117.662 30.6423 117.285 30.4156 116.872 30.2821C116.305 30.0987 115.695 30.0987 115.128 30.2821C114.715 30.4156 114.338 30.6423 114.026 30.9446L112.5 32.4256L111 33.881C110.334 34.527 109.715 35.2196 109.148 35.9536L108.5 36.7917L107 38.7321L105.5 40.6726L104 43.0982L101.5 46.494L99.6695 49.4048L98.1299 52.3155L96.5902 55.2262L95.0506 58.1369L94.5068 59.165C93.8444 60.4172 93.3046 61.7303 92.8947 63.0863L92.4845 64.4435L91.4581 67.8393L90.9448 70.2649L89.9184 74.011L89 77.9099L88.3788 82.878L88 88.2143V89.2668C88 90.4937 87.7594 91.7087 87.2917 92.8429C87.0976 93.3139 86.8654 93.7683 86.5974 94.2016L85.5 95.9762L84 97.9167L82 100.827L80.1673 103.738L78.5 106.164L77 108.589L75 111.5L73 114.411L71.9135 115.728C71.3359 116.429 71.1066 117.353 71.2899 118.243L71.5 119.262L72 123.143L72.5 127.024L73 130.42L73.5 135.756L74 142.062L77.5 140.122L84 136.726L94 130.545L100 127.024L104.085 124.652L108.5 122.658L110.447 122.173V127.024L110 131.39L109.421 135.756L109 140.122L108.394 143.518L108 146.429L107.5 149.339L107 151.765L106.5 154.19L105.5 157.101L105.305 157.763C104.77 159.581 104.063 161.345 103.194 163.031L102 165.348L100.5 167.774L99 170.685L96 175.051L93 178.446L90 182.327L88.6663 184.196C88.2246 184.815 87.8784 185.497 87.6393 186.219L87.3681 187.038C87.1269 187.766 87.0815 188.544 87.2363 189.295C87.4083 190.13 87.8205 190.896 88.4222 191.499L88.6987 191.777C89.4795 192.56 90.54 193 91.646 193C92.526 193 93.3833 192.721 94.0948 192.203L97 190.089L98.8453 188.555C99.947 187.638 100.982 186.644 101.941 185.58L104 183.298L107 180.387L109.5 177.476L112 175.051L115 171.655L116.321 170.117C117.104 169.205 117.778 168.204 118.329 167.135C118.775 166.269 119.139 165.363 119.414 164.429L119.446 164.319C119.814 163.069 120.034 161.78 120.101 160.479L120.5 152.735L122 142.062L123 133.815L123.5 125.083L124 123.143H125.5L129.5 124.652L134 127.024L140 130.545L149.5 136.726L155 140.122L159 142.062L160 135.756L160.5 130.545L161 127.024L161.5 122.658L162 119.262L162.21 118.243C162.393 117.353 162.164 116.429 161.587 115.728L160.5 114.411L156.5 109.074L155 106.649L153 103.253L151.5 100.827L149.5 97.9167L148 95.4911L146 92.5804C145.349 91.6324 145 90.5093 145 89.3592V86.7589L144.5 81.4226L143.806 76.0863L143 71.7202L142.266 68.8095L141.5 65.8988L140 62.0179L139.519 60.6174C139.173 59.6119 138.756 58.6327 138.268 57.6877L137.5 56.1964L137.421 56.0427C136.808 54.854 136.089 53.7237 135.271 52.6657L135 52.3155L133.5 49.8899L132 47.4643L130.5 45.0387L129 43.0982L127 40.6726L125 38.247L124.46 37.5483C123.821 36.7215 123.124 35.9413 122.374 35.2136L122 34.8512L121 33.881L119 31.9405Z" fill="#FF911C"/>
<path d="M126.338 153.939L127 149.825L128 153.221L128.5 155.161L129.5 158.072L130.5 160.982L131.5 163.408L132.5 165.636L135 170.2L136 172.14L137.5 174.566L139.267 177.319L140.78 179.417L142 181.357L143.5 183.783L143.839 184.277C144.276 184.913 144.599 185.621 144.791 186.368C144.93 186.907 145 187.46 145 188.016V188.634L144.893 189.049C144.638 190.04 144.071 190.922 143.277 191.567C142.982 191.806 142.66 192.009 142.317 192.172L141.591 192.516C141.057 192.77 140.473 192.901 139.882 192.901C139.128 192.901 138.389 192.687 137.751 192.284L137.576 192.173C137.318 192.009 137.076 191.821 136.854 191.61L136.614 191.382C136.313 191.096 136.034 190.787 135.78 190.457L134 188.149L132 185.238L127.029 178.307L126.003 176.358L125.317 175.056C125.09 174.625 124.905 174.174 124.764 173.708C124.547 172.99 124.437 172.244 124.437 171.494V171.17V169.535V166.656C124.437 165.977 124.486 165.298 124.585 164.626L125.437 158.813L126.338 153.939Z" fill="#052D64"/>
</svg>
